<svg xmlns="http://www.w3.org/2000/svg" viewBox="0 0 390 844" role="img" aria-label="主题变量桌面手账壁纸">
  <defs>
    <linearGradient id="bg" x1="0" y1="0" x2="0" y2="1"><stop stop-color="Canvas"/><stop offset="1" stop-color="ButtonFace"/></linearGradient>
    <pattern id="check" width="36" height="36" patternUnits="userSpaceOnUse"><rect width="36" height="36" fill="none"/><path d="M0 0h18v18H0zM18 18h18v18H18z" fill="currentColor" opacity=".10"/><path d="M18 0h18v18H18zM0 18h18v18H0z" fill="Canvas" opacity=".34"/></pattern>
    <pattern id="dots" width="26" height="26" patternUnits="userSpaceOnUse"><circle cx="7" cy="8" r="1.3" fill="currentColor" opacity=".16"/><circle cx="19" cy="18" r="1" fill="currentColor" opacity=".10"/></pattern>
  </defs>
  <rect width="390" height="844" fill="url(#bg)"/><rect width="390" height="844" fill="url(#dots)"/>
  <path d="M0 0h390v118H0z" fill="url(#check)" opacity=".62"/>
  <path d="M0 104c20 18 39 18 59 0 20 18 39 18 59 0 20 18 39 18 59 0 20 18 39 18 59 0 20 18 39 18 59 0 20 18 39 18 59 0 12 11 24 15 36 12v25H0z" fill="Canvas" stroke="currentColor" stroke-width="2" opacity=".72"/>
  <g opacity=".42" fill="none" stroke="currentColor" stroke-linecap="round" stroke-linejoin="round"><path d="M34 151v64m0-64c0 18 18 18 18 0m-18 64c0-18 18-18 18 0"/><path d="M332 136v70m0-70c0 18 18 18 18 0m-18 70c0-18 18-18 18 0"/></g>
  <g opacity=".44"><circle cx="80" cy="650" r="46" fill="currentColor"/><circle cx="64" cy="626" r="12" fill="CanvasText" opacity=".24"/><circle cx="102" cy="622" r="12" fill="CanvasText" opacity=".24"/><circle cx="80" cy="659" r="24" fill="Canvas" opacity=".62"/><circle cx="70" cy="648" r="3" fill="CanvasText"/><circle cx="90" cy="648" r="3" fill="CanvasText"/><path d="M76 663c3 3 6 3 9 0" stroke="CanvasText" stroke-width="3" fill="none" stroke-linecap="round"/></g>
  <g opacity=".36"><path d="M238 574h86c13 0 24 11 24 24v62H214v-62c0-13 11-24 24-24Z" fill="Canvas" stroke="currentColor" stroke-width="3"/><path d="M238 574c5-30 23-48 43-48s38 18 43 48" fill="none" stroke="currentColor" stroke-width="8" stroke-linecap="round"/><path d="M254 608h58M254 632h36" stroke="CanvasText" stroke-width="5" stroke-linecap="round" opacity=".34"/></g>
  <g stroke="currentColor" stroke-width="2" stroke-linecap="round" opacity=".46"><path d="M54 348c20 11 40 11 60 0 20-11 40-11 60 0"/><path d="M244 316c10-14 26-14 36 0 10-14 26-14 36 0"/><path d="m322 462 5 10 10 5-10 5-5 10-5-10-10-5 10-5z" fill="Canvas"/></g>
</svg>
