<svg xmlns="http://www.w3.org/2000/svg" viewBox="0 0 390 844" role="img" aria-label="主题变量信纸聊天背景">
  <defs><linearGradient id="bg" x1="0" y1="0" x2="0" y2="1"><stop stop-color="Canvas"/><stop offset="1" stop-color="ButtonFace"/></linearGradient><pattern id="paper" width="30" height="30" patternUnits="userSpaceOnUse"><path d="M0 29.5h30" stroke="currentColor" stroke-width=".8" opacity=".16"/><circle cx="9" cy="10" r="1" fill="currentColor" opacity=".12"/></pattern></defs>
  <rect width="390" height="844" fill="url(#bg)"/><rect width="390" height="844" fill="url(#paper)"/>
  <path d="M42 104h112l-56 42Z" fill="Canvas" stroke="currentColor" stroke-width="3" opacity=".42"/><path d="M42 104l56 49 56-49" fill="none" stroke="currentColor" stroke-width="3" opacity=".42"/>
  <g opacity=".32"><path d="M216 84h112c10 0 18 8 18 18v104H198V102c0-10 8-18 18-18Z" fill="Canvas" stroke="currentColor" stroke-width="3"/><path d="M220 106h104v68H220z" fill="currentColor" opacity=".14"/><path d="M272 88v86M220 140h104" stroke="currentColor" stroke-width="3"/></g>
  <g opacity=".30"><circle cx="296" cy="580" r="38" fill="currentColor"/><circle cx="278" cy="558" r="11" fill="CanvasText" opacity=".24"/><circle cx="316" cy="558" r="11" fill="CanvasText" opacity=".24"/><circle cx="286" cy="582" r="3" fill="CanvasText"/><circle cx="306" cy="582" r="3" fill="CanvasText"/><path d="M291 595c4 3 8 3 12 0" stroke="CanvasText" stroke-width="3" fill="none" stroke-linecap="round"/></g>
  <g opacity=".30" fill="none" stroke="currentColor" stroke-linecap="round"><path d="M56 428c18 9 36 9 54 0 18-9 36-9 54 0" stroke-width="3"/><path d="M284 360c8-12 22-12 30 0 8-12 22-12 30 0" stroke-width="3"/><path d="m72 672 4 9 9 4-9 4-4 9-4-9-9-4 9-4z" fill="Canvas" stroke-width="2"/></g>
</svg>
