<svg xmlns="http://www.w3.org/2000/svg" viewBox="0 0 390 430" role="img" aria-label="主题变量小组件底纹">
  <defs><pattern id="check" width="32" height="32" patternUnits="userSpaceOnUse"><path d="M0 0h16v16H0zM16 16h16v16H16z" fill="currentColor" opacity=".10"/><path d="M16 0h16v16H16zM0 16h16v16H0z" fill="Canvas" opacity=".30"/></pattern><pattern id="dots" width="20" height="20" patternUnits="userSpaceOnUse"><circle cx="6" cy="6" r="1.1" fill="currentColor" opacity=".14"/></pattern></defs>
  <rect width="390" height="430" fill="Canvas"/><rect x="18" y="18" width="354" height="360" rx="34" fill="url(#check)" opacity=".58"/><rect x="18" y="18" width="354" height="360" rx="34" fill="url(#dots)"/>
  <path d="M18 76c38 10 69 8 104-5 39-15 72-12 113 4 45 17 90 11 137-7" fill="none" stroke="currentColor" stroke-width="10" stroke-linecap="round" opacity=".32"/>
  <g opacity=".42"><circle cx="94" cy="76" r="27" fill="currentColor"/><circle cx="83" cy="66" r="3" fill="CanvasText"/><circle cx="104" cy="65" r="3" fill="CanvasText"/><circle cx="96" cy="82" r="2.5" fill="CanvasText"/><path d="M260 58h62v54h-62z" rx="16" fill="Canvas" stroke="currentColor" stroke-width="3"/><path d="M276 80h30M276 94h20" stroke="CanvasText" stroke-width="4" stroke-linecap="round" opacity=".34"/></g>
  <path d="M34 380c42 11 75 7 112-5 45-14 84-11 128 4 28 10 55 11 82 3" fill="none" stroke="currentColor" stroke-width="5" stroke-linecap="round" opacity=".24"/>
</svg>
