<svg xmlns="http://www.w3.org/2000/svg" viewBox="0 0 390 430" role="img" aria-label="浅色手账纸张小组件区域背景">
  <defs>
    <pattern id="grid" width="28" height="28" patternUnits="userSpaceOnUse"><path d="M28 0H0v28" fill="none" stroke="#e9dccd" stroke-width="1" opacity=".38"/></pattern>
    <pattern id="dots" width="18" height="18" patternUnits="userSpaceOnUse"><circle cx="5" cy="5" r="1" fill="#d7a4ad" opacity=".22"/></pattern>
  </defs>
  <rect width="390" height="430" fill="#fffaf4" opacity=".92"/><rect x="18" y="18" width="354" height="360" rx="34" fill="#fffdf8" opacity=".58"/>
  <rect x="18" y="18" width="354" height="360" rx="34" fill="url(#grid)" opacity=".72"/><rect x="18" y="18" width="354" height="360" rx="34" fill="url(#dots)"/>
  <path d="M18 76c38 10 69 8 104-5 39-15 72-12 113 4 45 17 90 11 137-7" fill="none" stroke="#efd8df" stroke-width="12" stroke-linecap="round" opacity=".42"/>
  <g opacity=".55">
    <path d="M58 46h68v44H58z" rx="12" fill="#f8e4ea"/><path d="M72 64h38M72 76h28" stroke="#b98f99" stroke-width="3" stroke-linecap="round" opacity=".36"/>
    <path d="M286 54c12-13 31-8 31 9 0 16-19 25-31 36-12-11-31-20-31-36 0-17 19-22 31-9Z" fill="#e9c4cf" opacity=".62"/>
    <path d="M72 324c8-18 33-18 41 0-5 12-15 21-21 27-6-6-16-15-20-27Z" fill="#c9dbe0" opacity=".58"/>
    <path d="M275 320h62" stroke="#d4a6ae" stroke-width="4" stroke-linecap="round" opacity=".42"/><path d="M286 306h38v28h-38z" rx="10" fill="#f3e3ba" opacity=".56"/>
  </g>
  <path d="M34 380c42 11 75 7 112-5 45-14 84-11 128 4 28 10 55 11 82 3" fill="none" stroke="#e5c8d2" stroke-width="5" stroke-linecap="round" opacity=".3"/>
</svg>
