<svg xmlns="http://www.w3.org/2000/svg" viewBox="0 0 390 844" role="img" aria-label="主题变量梦境背景">
  <defs><linearGradient id="sky" x1="0" y1="0" x2="0" y2="1"><stop stop-color="Canvas"/><stop offset=".58" stop-color="Canvas"/><stop offset="1" stop-color="ButtonFace"/></linearGradient><radialGradient id="moon" cx="50%" cy="50%" r="50%"><stop stop-color="Canvas"/><stop offset="1" stop-color="currentColor" stop-opacity=".28"/></radialGradient></defs>
  <rect width="390" height="844" fill="url(#sky)"/>
  <circle cx="302" cy="116" r="56" fill="url(#moon)" opacity=".82"/><path d="M316 80c-22 12-28 38-14 58 8 12 20 18 34 18-9 9-23 15-39 15-30 0-55-25-55-55 0-27 20-50 46-54 11-2 22 0 28 18Z" fill="Canvas" opacity=".48"/>
  <g opacity=".38" fill="Canvas"><path d="M38 250c16-27 54-29 72-2 15-14 42-13 57 3 23-13 56-5 68 18H34c-6 0-9-10 4-19Z"/><path d="M198 388c18-25 54-25 72 0 18-13 48-10 62 10 16-6 34-1 44 11H178c-4-8 2-16 20-21Z"/></g>
  <g opacity=".34"><path d="M0 690c44-62 89-80 135-55 34 18 63 15 96-16 48-45 103-32 159 38v187H0Z" fill="currentColor"/><path d="M30 694c20-50 43-50 64 0M116 690c24-64 51-64 76 0M238 684c24-58 51-58 76 0" fill="none" stroke="CanvasText" stroke-width="5" stroke-linecap="round" opacity=".32"/></g>
  <g opacity=".38"><circle cx="120" cy="508" r="28" fill="currentColor" stroke="CanvasText" stroke-width="3"/><circle cx="105" cy="488" r="9" fill="CanvasText" opacity=".24"/><circle cx="136" cy="488" r="9" fill="CanvasText" opacity=".24"/><circle cx="112" cy="508" r="2.5" fill="CanvasText"/><circle cx="128" cy="508" r="2.5" fill="CanvasText"/><path d="M116 520c3 2 7 2 10 0" fill="none" stroke="CanvasText" stroke-width="2.5" stroke-linecap="round"/></g>
  <g fill="none" stroke="currentColor" stroke-width="2.4" stroke-linecap="round" opacity=".40"><path d="M76 142l6 6M82 142l-6 6M330 270l7 7M337 270l-7 7"/></g>
</svg>
