<svg xmlns="http://www.w3.org/2000/svg" viewBox="0 0 390 844" role="img" aria-label="主题变量设置小窝背景">
  <defs><linearGradient id="desk" x1="0" y1="0" x2="0" y2="1"><stop stop-color="Canvas"/><stop offset="1" stop-color="ButtonFace"/></linearGradient><pattern id="tiny" width="30" height="30" patternUnits="userSpaceOnUse"><path d="M0 29.5h30" stroke="currentColor" stroke-width=".8" opacity=".16"/><circle cx="22" cy="9" r="1" fill="currentColor" opacity=".12"/></pattern></defs>
  <rect width="390" height="844" fill="url(#desk)"/><rect width="390" height="844" fill="url(#tiny)"/>
  <path d="M0 0h390v150H0z" fill="currentColor" opacity=".18"/><path d="M0 136c20 18 39 18 59 0 20 18 39 18 59 0 20 18 39 18 59 0 20 18 39 18 59 0 20 18 39 18 59 0 20 18 39 18 59 0 12 11 24 15 36 12v24H0z" fill="Canvas" stroke="currentColor" stroke-width="2" opacity=".70"/>
  <g opacity=".42"><path d="M48 86h116l18 22h118c13 0 24 11 24 24v94H36V98c0-7 5-12 12-12Z" fill="currentColor" stroke="CanvasText" stroke-width="3" opacity=".36"/><path d="M36 144h288v98H36z" rx="22" fill="Canvas" stroke="currentColor" stroke-width="3"/><path d="M72 178h102M72 202h68" stroke="CanvasText" stroke-width="5" stroke-linecap="round" opacity=".34"/><path d="M246 168l22 22 38-46" fill="none" stroke="currentColor" stroke-width="7" stroke-linecap="round" stroke-linejoin="round" opacity=".46"/></g>
  <g opacity=".34"><path d="M60 520h116c11 0 20 9 20 20v76H40v-76c0-11 9-20 20-20Z" fill="Canvas" stroke="currentColor" stroke-width="3"/><path d="M68 554h82M68 578h58" stroke="CanvasText" stroke-width="4" stroke-linecap="round" opacity=".34"/><circle cx="286" cy="560" r="36" fill="currentColor"/><circle cx="272" cy="542" r="10" fill="CanvasText" opacity=".24"/><circle cx="303" cy="542" r="10" fill="CanvasText" opacity=".24"/><circle cx="278" cy="560" r="2.5" fill="CanvasText"/><circle cx="294" cy="560" r="2.5" fill="CanvasText"/><path d="M282 572c3 2 7 2 10 0" stroke="CanvasText" stroke-width="3" fill="none" stroke-linecap="round"/></g>
  <g opacity=".30" fill="none" stroke-linecap="round"><path d="M54 318c22 11 44 11 66 0 22-11 44-11 66 0" stroke="currentColor" stroke-width="3"/><path d="M232 336c16 9 32 9 48 0 16-9 32-9 48 0" stroke="currentColor" stroke-width="2.5"/></g>
</svg>
