<svg xmlns="http://www.w3.org/2000/svg" viewBox="0 0 390 430" role="img" aria-label="焦糖小熊小组件纯色底纹">
  <defs><radialGradient id="g" cx="50%" cy="50%" r="50%"><stop stop-color="Canvas"/><stop offset="1" stop-color="currentColor" stop-opacity=".14"/></radialGradient></defs>
  <rect width="390" height="430" fill="Canvas"/>
  <rect x="22" y="20" width="346" height="356" rx="42" fill="url(#g)" opacity=".62"/>
  <path d="M42 92c30-14 62-14 96 0 38 16 76 16 114 0 32-14 64-14 96 0" fill="none" stroke="currentColor" stroke-width="4" stroke-linecap="round" opacity=".20"/>
  <g fill="Canvas" stroke="currentColor" stroke-linecap="round" stroke-linejoin="round" opacity=".38">
    <path d="M70 204h98c14 0 25 11 25 25v62c0 14-11 25-25 25H70c-14 0-25-11-25-25v-62c0-14 11-25 25-25Z" stroke-width="3"/>
    <path d="M72 239h84M72 265h52" stroke-width="5" opacity=".42"/>
    <circle cx="282" cy="242" r="34" fill="currentColor" stroke-width="3"/>
    <circle cx="263" cy="220" r="10"/><circle cx="303" cy="220" r="10"/>
    <circle cx="272" cy="240" r="2.8" fill="CanvasText"/><circle cx="294" cy="240" r="2.8" fill="CanvasText"/>
    <path d="M278 255c4 3 8 3 12 0" fill="none" stroke="CanvasText" stroke-width="3"/>
  </g>
</svg>
